# Blender v2.79 (sub 0) OBJ File: ''
# www.blender.org
v -0.826492 -1.000000 0.826492
v -0.826492 -0.826492 1.000000
v -1.000000 -0.826492 0.826492
v -0.826492 -0.949181 0.949181
v -0.926667 -0.926667 0.926667
v -0.949181 -0.826492 0.949181
v -0.949181 -0.949181 0.826492
v -0.826492 0.826492 1.000000
v -0.826492 1.000000 0.826492
v -1.000000 0.826492 0.826492
v -0.826492 0.949181 0.949181
v -0.926667 0.926667 0.926667
v -0.949181 0.949181 0.826492
v -0.949181 0.826492 0.949181
v -0.826492 -1.000000 -0.826492
v -1.000000 -0.826492 -0.826492
v -0.826492 -0.826492 -1.000000
v -0.949181 -0.949181 -0.826492
v -0.926667 -0.926667 -0.926667
v -0.949181 -0.826492 -0.949181
v -0.826492 -0.949181 -0.949181
v -0.826492 1.000000 -0.826492
v -0.826492 0.826492 -1.000000
v -1.000000 0.826492 -0.826492
v -0.826492 0.949181 -0.949181
v -0.926667 0.926667 -0.926667
v -0.949181 0.826492 -0.949181
v -0.949181 0.949181 -0.826492
v 0.826492 -1.000000 0.826492
v 1.000000 -0.826492 0.826492
v 0.826492 -0.826492 1.000000
v 0.949181 -0.949181 0.826492
v 0.926667 -0.926667 0.926667
v 0.949181 -0.826492 0.949181
v 0.826492 -0.949181 0.949181
v 0.826492 1.000000 0.826492
v 0.826492 0.826492 1.000000
v 1.000000 0.826492 0.826492
v 0.826492 0.949181 0.949181
v 0.926667 0.926667 0.926667
v 0.949181 0.826492 0.949181
v 0.949181 0.949181 0.826492
v 0.826492 -1.000000 -0.826492
v 0.826492 -0.826492 -1.000000
v 1.000000 -0.826492 -0.826492
v 0.826492 -0.949181 -0.949181
v 0.926667 -0.926667 -0.926667
v 0.949181 -0.826492 -0.949181
v 0.949181 -0.949181 -0.826492
v 0.826492 1.000000 -0.826492
v 1.000000 0.826492 -0.826492
v 0.826492 0.826492 -1.000000
v 0.949181 0.949181 -0.826492
v 0.926667 0.926667 -0.926667
v 0.949181 0.826492 -0.949181
v 0.826492 0.949181 -0.949181
vt 0.913163 0.913163
vt 0.086837 0.086837
vt 0.913163 0.086837
vt 0.913163 0.913163
vt 0.086837 0.086837
vt 0.913163 0.086837
vt 0.086837 0.913163
vt 0.913163 0.086837
vt 0.913163 0.913163
vt 0.086837 0.086837
vt 0.913163 0.913163
vt 0.086837 0.913163
vt 0.086837 0.086837
vt 0.913163 0.913163
vt 0.086837 0.913163
vt 0.086837 0.913163
vt 0.036759 0.999900
vt 0.000100 0.913163
vt 0.000100 0.036759
vt 0.086837 0.000100
vt 0.000100 0.913163
vt 0.086837 0.913163
vt 0.036759 0.999900
vt 0.000100 0.913163
vt 0.086837 0.086837
vt 0.000100 0.036759
vt 0.086837 0.000100
vt 0.086837 0.000100
vt 0.086837 0.086837
vt 0.000100 0.036759
vt 0.086837 0.000100
vt 0.999900 0.963241
vt 0.913163 0.999900
vt 0.036759 0.999900
vt 0.000100 0.913163
vt 0.036759 0.999900
vt 0.000100 0.913163
vt 0.000100 0.036759
vt 0.086837 0.000100
vt 0.913163 0.086837
vt 0.963241 0.000100
vt 0.999900 0.086837
vt 0.913163 0.913163
vt 0.999900 0.963241
vt 0.913163 0.999900
vt 0.000100 0.036759
vt 0.086837 0.000100
vt 0.963241 0.000100
vt 0.999900 0.086837
vt 0.963241 0.000100
vt 0.999900 0.086837
vt 0.999900 0.963241
vt 0.913163 0.999900
vt 0.086837 0.913163
vt 0.036759 0.999900
vt 0.000100 0.913163
vt 0.913163 0.086837
vt 0.963241 0.000100
vt 0.999900 0.086837
vt 0.999900 0.963241
vt 0.913163 0.999900
vt 0.999900 0.086837
vt 0.999900 0.963241
vt 0.913163 0.999900
vt 0.913163 0.999900
vt 0.913163 0.086837
vt 0.963241 0.000100
vt 0.999900 0.086837
vt 0.000100 0.086837
vt 0.086837 0.999900
vt 0.000100 0.086837
vt 0.000100 0.086837
vt 0.000100 0.086837
vt 0.913163 0.000100
vt 0.000100 0.086837
vt 0.999900 0.913163
vt 0.913163 0.000100
vt 0.086837 0.999900
vt 0.086837 0.999900
vt 0.913163 0.000100
vt 0.999900 0.913163
vt 0.999900 0.913163
vt 0.999900 0.913163
vt 0.913163 0.000100
vt 0.999900 0.913163
vt 0.086837 0.999900
vt 0.999900 0.913163
vt 0.000100 0.086837
vt 0.086837 0.999900
vt 0.913163 0.000100
vt 0.913163 0.000100
vt 0.086837 0.999900
vn 0.1794 0.1794 0.9673
vn -0.1794 -0.1794 0.9673
vn 0.1794 -0.1794 0.9673
vn 0.9673 0.1794 -0.1794
vn 0.9673 -0.1794 0.1794
vn 0.9673 -0.1794 -0.1794
vn -0.1794 0.9673 -0.1794
vn 0.1794 0.9673 0.1794
vn 0.1794 0.9673 -0.1794
vn -0.9673 0.1794 0.1794
vn -0.9673 -0.1794 -0.1794
vn -0.9673 -0.1794 0.1794
vn -0.1794 0.1794 -0.9673
vn 0.1794 -0.1794 -0.9673
vn -0.1794 -0.1794 -0.9673
vn -0.1794 -0.9673 0.1794
vn -0.5773 -0.5773 0.5773
vn -0.6993 -0.6993 0.1479
vn -0.1479 -0.6993 0.6993
vn -0.6993 -0.1479 0.6993
vn -0.1794 0.1794 0.9673
vn -0.5773 0.5773 0.5773
vn -0.6993 0.1479 0.6993
vn -0.1794 0.9673 0.1794
vn -0.1479 0.6993 0.6993
vn -0.6993 0.6993 0.1479
vn -0.1794 -0.9673 -0.1794
vn -0.5773 -0.5773 -0.5773
vn -0.1479 -0.6993 -0.6993
vn -0.6993 -0.6993 -0.1479
vn -0.6993 -0.1479 -0.6993
vn -0.5773 0.5773 -0.5773
vn -0.6993 0.6993 -0.1479
vn -0.1479 0.6993 -0.6993
vn -0.9673 0.1794 -0.1794
vn -0.6993 0.1479 -0.6993
vn 0.1794 -0.9673 0.1794
vn 0.5773 -0.5773 0.5773
vn 0.1479 -0.6993 0.6993
vn 0.6993 -0.6993 0.1479
vn 0.6993 -0.1479 0.6993
vn 0.5773 0.5773 0.5773
vn 0.6993 0.6993 0.1479
vn 0.1479 0.6993 0.6993
vn 0.9673 0.1794 0.1794
vn 0.6993 0.1479 0.6993
vn 0.1794 -0.9673 -0.1794
vn 0.5773 -0.5773 -0.5773
vn 0.6993 -0.6993 -0.1479
vn 0.1479 -0.6993 -0.6993
vn 0.6993 -0.1479 -0.6993
vn 0.5773 0.5773 -0.5773
vn 0.1479 0.6993 -0.6993
vn 0.6993 0.6993 -0.1479
vn 0.1794 0.1794 -0.9673
vn 0.6993 0.1479 -0.6993
s 1
f 37/1/1 2/2/2 31/3/3
f 51/4/4 30/5/5 45/6/6
f 22/7/7 36/8/8 50/9/9
f 10/10/10 16/11/11 3/12/12
f 23/13/13 44/14/14 17/15/15
f 1/16/16 5/17/17 7/18/18
f 2/2/2 5/19/17 4/20/19
f 3/12/12 5/17/17 6/21/20
f 8/22/21 12/23/22 14/24/23
f 9/25/24 12/26/22 11/27/25
f 10/10/10 12/26/22 13/28/26
f 15/29/27 19/30/28 21/31/29
f 16/11/11 19/32/28 18/33/30
f 17/15/15 19/34/28 20/35/31
f 22/7/7 26/36/32 28/37/33
f 23/13/13 26/38/32 25/39/34
f 24/40/35 26/41/32 27/42/36
f 29/43/37 33/44/38 35/45/39
f 30/5/5 33/46/38 32/47/40
f 31/3/3 33/48/38 34/49/41
f 36/8/8 40/50/42 42/51/43
f 37/1/1 40/52/42 39/53/44
f 38/54/45 40/55/42 41/56/46
f 43/57/47 47/58/48 49/59/49
f 44/14/14 47/60/48 46/61/50
f 45/6/6 47/58/48 48/62/51
f 50/9/9 54/63/52 56/64/53
f 51/4/4 54/63/52 53/65/54
f 52/66/55 54/67/52 55/68/56
f 15/29/27 7/18/18 18/69/30
f 7/70/18 16/11/11 18/33/30
f 8/22/21 6/71/20 2/2/2
f 14/72/23 3/12/12 6/21/20
f 9/25/24 28/37/33 13/73/26
f 28/74/33 10/10/10 13/28/26
f 17/15/15 27/75/36 23/13/13
f 20/76/31 24/40/35 27/42/36
f 43/57/47 21/31/29 46/77/50
f 21/78/29 44/14/14 46/61/50
f 22/7/7 56/64/53 25/79/34
f 56/80/53 23/13/13 25/39/34
f 45/6/6 55/81/56 51/4/4
f 48/82/51 52/66/55 55/68/56
f 29/43/37 49/59/49 32/83/40
f 49/84/49 30/5/5 32/47/40
f 50/9/9 42/51/43 53/85/54
f 42/86/43 51/4/4 53/65/54
f 31/3/3 41/87/46 37/1/1
f 34/88/41 38/54/45 41/56/46
f 1/16/16 35/45/39 4/89/19
f 35/90/39 2/2/2 4/20/19
f 36/8/8 11/27/25 39/91/44
f 11/92/25 37/1/1 39/53/44
f 43/57/47 1/16/16 15/29/27
f 37/1/1 8/22/21 2/2/2
f 51/4/4 38/54/45 30/5/5
f 22/7/7 9/25/24 36/8/8
f 10/10/10 24/40/35 16/11/11
f 23/13/13 52/66/55 44/14/14
f 1/16/16 4/89/19 5/17/17
f 2/2/2 6/71/20 5/19/17
f 3/12/12 7/70/18 5/17/17
f 8/22/21 11/92/25 12/23/22
f 9/25/24 13/73/26 12/26/22
f 10/10/10 14/72/23 12/26/22
f 15/29/27 18/69/30 19/30/28
f 16/11/11 20/76/31 19/32/28
f 17/15/15 21/78/29 19/34/28
f 22/7/7 25/79/34 26/36/32
f 23/13/13 27/75/36 26/38/32
f 24/40/35 28/74/33 26/41/32
f 29/43/37 32/83/40 33/44/38
f 30/5/5 34/88/41 33/46/38
f 31/3/3 35/90/39 33/48/38
f 36/8/8 39/91/44 40/50/42
f 37/1/1 41/87/46 40/52/42
f 38/54/45 42/86/43 40/55/42
f 43/57/47 46/77/50 47/58/48
f 44/14/14 48/82/51 47/60/48
f 45/6/6 49/84/49 47/58/48
f 50/9/9 53/85/54 54/63/52
f 51/4/4 55/81/56 54/63/52
f 52/66/55 56/80/53 54/67/52
f 15/29/27 1/16/16 7/18/18
f 7/70/18 3/12/12 16/11/11
f 8/22/21 14/24/23 6/71/20
f 14/72/23 10/10/10 3/12/12
f 9/25/24 22/7/7 28/37/33
f 28/74/33 24/40/35 10/10/10
f 17/15/15 20/35/31 27/75/36
f 20/76/31 16/11/11 24/40/35
f 43/57/47 15/29/27 21/31/29
f 21/78/29 17/15/15 44/14/14
f 22/7/7 50/9/9 56/64/53
f 56/80/53 52/66/55 23/13/13
f 45/6/6 48/62/51 55/81/56
f 48/82/51 44/14/14 52/66/55
f 29/43/37 43/57/47 49/59/49
f 49/84/49 45/6/6 30/5/5
f 50/9/9 36/8/8 42/51/43
f 42/86/43 38/54/45 51/4/4
f 31/3/3 34/49/41 41/87/46
f 34/88/41 30/5/5 38/54/45
f 1/16/16 29/43/37 35/45/39
f 35/90/39 31/3/3 2/2/2
f 36/8/8 9/25/24 11/27/25
f 11/92/25 8/22/21 37/1/1
f 43/57/47 29/43/37 1/16/16
