# Blender v2.79 (sub 0) OBJ File: ''
# www.blender.org
v -1.000000 0.000000 -0.361510
v 1.000000 0.000000 -0.361510
v -1.000000 2.000000 -0.361510
v 1.000000 2.000000 -0.361510
v 0.186924 0.000000 1.046780
v -0.813076 0.000000 -0.685271
v 0.186924 2.000000 1.046780
v -0.813076 2.000000 -0.685271
v 0.813076 0.000000 -0.685271
v -0.186923 0.000000 1.046780
v 0.813076 2.000000 -0.685271
v -0.186923 2.000000 1.046780
v -1.000000 0.000000 -0.361610
v 1.000000 0.000000 -0.361610
v -1.000000 2.000000 -0.361610
v 1.000000 2.000000 -0.361610
v 0.186837 0.000000 1.046830
v -0.813163 0.000000 -0.685221
v 0.186837 2.000000 1.046830
v -0.813163 2.000000 -0.685221
v 0.813163 0.000000 -0.685221
v -0.186837 0.000000 1.046830
v 0.813163 2.000000 -0.685221
v -0.186837 2.000000 1.046830
vt 0.999900 0.000100
vt 0.000100 0.999900
vt 0.000100 0.000100
vt 0.999900 0.000100
vt 0.000100 0.999900
vt 0.000100 0.000100
vt 0.999900 0.000100
vt 0.000100 0.999900
vt 0.000100 0.000100
vt 0.000100 0.999900
vt 0.999900 0.000100
vt 0.000100 0.000100
vt 0.000100 0.999900
vt 0.999900 0.000100
vt 0.000100 0.000100
vt 0.000100 0.999900
vt 0.999900 0.000100
vt 0.000100 0.000100
vt 0.999900 0.999900
vt 0.999900 0.999900
vt 0.999900 0.999900
vt 0.999900 0.999900
vt 0.999900 0.999900
vt 0.999900 0.999900
vn 0.0000 0.0000 1.0000
vn 0.8660 0.0000 -0.5000
vn -0.8660 0.0000 -0.5000
vn 0.0000 0.0000 -1.0000
vn -0.8660 0.0000 0.5000
vn 0.8660 0.0000 0.5000
s off
f 2/1/1 3/2/1 1/3/1
f 6/4/2 7/5/2 5/6/2
f 10/7/3 11/8/3 9/9/3
f 15/10/4 14/11/4 13/12/4
f 19/13/5 18/14/5 17/15/5
f 23/16/6 22/17/6 21/18/6
f 2/1/1 4/19/1 3/2/1
f 6/4/2 8/20/2 7/5/2
f 10/7/3 12/21/3 11/8/3
f 15/10/4 16/22/4 14/11/4
f 19/13/5 20/23/5 18/14/5
f 23/16/6 24/24/6 22/17/6
