# Blender v2.79 (sub 0) OBJ File: 'grass.blend'
# www.blender.org
v 1.059209 1.589083 -3.852396
v -0.869615 1.884797 -4.290791
v 0.974162 -0.148639 -4.429770
v -1.025837 -0.148639 -4.429770
v -0.226992 1.656962 -5.874051
v 0.794900 1.948255 -4.179682
v -0.336618 -0.116451 -5.503795
v 0.663382 -0.116451 -3.771744
v -0.729379 2.051673 -4.079774
v 0.237280 1.818150 -5.815008
v -0.702384 -0.026244 -3.801836
v 0.297615 -0.026244 -5.533886
v -0.702058 0.648694 -3.808391
v -0.709530 1.364523 -3.915742
v 0.271320 1.215477 -5.653740
v 0.295398 0.627874 -5.542742
v -0.335744 0.535073 -5.512952
v -0.299477 1.090048 -5.655389
v 0.712498 1.284771 -3.949688
v 0.660182 0.574701 -3.784729
v 0.974637 0.497258 -4.397484
v 1.002589 1.033638 -4.135911
v -0.969961 1.218313 -4.418244
v -1.025394 0.523356 -4.437901
v 1.252281 1.190970 -5.139291
v 0.876745 0.914414 -3.194429
v 0.612316 -0.169067 -5.472598
v -0.155344 -0.171239 -3.624938
v 0.630072 0.472891 -5.409696
v 0.887601 0.831329 -5.248753
v 0.326026 0.687158 -3.360867
v -0.106878 0.443164 -3.594424
v 0.165035 0.679898 -3.045757
v -1.006031 1.646140 -4.347672
v 0.431242 -0.169067 -3.792742
v -0.884996 -0.171239 -5.299614
v 0.393140 0.302493 -3.743353
v 0.257231 0.464169 -3.459789
v -0.943501 1.187185 -4.895267
v -0.863406 0.573534 -5.264510
v -1.323873 1.181176 -4.591899
v -0.106614 1.111263 -6.177268
v -0.992128 -0.199659 -4.437781
v 0.836526 -0.198147 -5.250252
v -0.962263 0.413204 -4.392268
v -1.088279 0.759362 -4.492748
v 0.448354 0.909480 -5.706218
v 0.793495 0.546489 -5.243185
v -1.323873 1.181176 -4.591899
v -0.106614 1.111263 -6.177268
v 1.059209 1.589083 -3.852396
v -0.869615 1.884797 -4.290791
v 0.974162 -0.148639 -4.429770
v -1.025837 -0.148639 -4.429770
v -0.226992 1.656962 -5.874051
v 0.794900 1.948255 -4.179682
v -0.336618 -0.116451 -5.503795
v 0.663382 -0.116451 -3.771744
v -0.729379 2.051673 -4.079774
v 0.237280 1.818150 -5.815008
v -0.702384 -0.026244 -3.801836
v 0.297615 -0.026244 -5.533886
v -0.702058 0.648694 -3.808391
v -0.709530 1.364523 -3.915742
v 0.271320 1.215477 -5.653740
v 0.295398 0.627874 -5.542742
v -0.335744 0.535073 -5.512952
v -0.299477 1.090048 -5.655389
v 0.712498 1.284771 -3.949688
v 0.660182 0.574701 -3.784729
v 0.974637 0.497258 -4.397484
v 1.002589 1.033638 -4.135911
v -0.969961 1.218313 -4.418244
v -1.025394 0.523356 -4.437901
v 1.252281 1.190970 -5.139291
v 0.876745 0.914414 -3.194429
v 0.612316 -0.169067 -5.472598
v -0.155344 -0.171239 -3.624938
v 0.630072 0.472891 -5.409696
v 0.887601 0.831329 -5.248753
v 0.326026 0.687158 -3.360867
v -0.106878 0.443164 -3.594424
v 0.165035 0.679898 -3.045757
v -1.006031 1.646140 -4.347672
v 0.431242 -0.169067 -3.792742
v -0.884996 -0.171239 -5.299614
v 0.393140 0.302493 -3.743353
v 0.257231 0.464169 -3.459789
v -0.943501 1.187185 -4.895267
v -0.863406 0.573534 -5.264510
v -1.323873 1.181176 -4.591899
v -0.106614 1.111263 -6.177268
v -0.992128 -0.199659 -4.437781
v 0.836526 -0.198147 -5.250252
v -0.962263 0.413204 -4.392268
v -1.088279 0.759362 -4.492748
v 0.448354 0.909480 -5.706218
v 0.793495 0.546489 -5.243185
v -1.323873 1.181176 -4.591899
v -0.106614 1.111263 -6.177268
vt 0.999900 0.666633
vt 0.000100 0.999900
vt 0.000100 0.666633
vt 0.999900 0.666633
vt 0.000100 0.999900
vt 0.000100 0.666633
vt 0.000100 0.666633
vt 0.999900 0.999900
vt 0.000100 0.999900
vt 0.000100 0.000100
vt 0.999900 0.333367
vt 0.000100 0.333367
vt 0.999900 0.666633
vt 0.999900 0.000100
vt 0.000100 0.333367
vt 0.000100 0.000100
vt 0.999900 0.333367
vt 0.000100 0.000100
vt 0.999900 0.333367
vt 0.000100 0.333367
vt 0.999900 0.666633
vt 0.000100 0.999900
vt 0.000100 0.666633
vt 0.000100 0.000100
vt 0.999900 0.333367
vt 0.000100 0.333367
vt 0.999900 0.666633
vt 0.000100 0.999900
vt 0.000100 0.666633
vt 0.000100 0.000100
vt 0.999900 0.333367
vt 0.000100 0.333367
vt 0.999900 0.666633
vt 0.000100 0.999900
vt 0.000100 0.666633
vt 0.000100 0.000100
vt 0.999900 0.333367
vt 0.000100 0.333367
vt 0.999900 0.999900
vt 0.000100 0.999900
vt 0.000100 0.999900
vt 0.999900 0.666633
vt 0.000100 0.666633
vt 0.000100 0.999900
vt 0.999900 0.666633
vt 0.000100 0.666633
vt 0.000100 0.666633
vt 0.999900 0.999900
vt 0.999900 0.666633
vt 0.000100 0.000100
vt 0.999900 0.333367
vt 0.999900 0.000100
vt 0.000100 0.333367
vt 0.000100 0.333367
vt 0.999900 0.000100
vt 0.000100 0.000100
vt 0.999900 0.333367
vt 0.000100 0.000100
vt 0.999900 0.333367
vt 0.999900 0.000100
vt 0.000100 0.333367
vt 0.000100 0.999900
vt 0.999900 0.666633
vt 0.000100 0.666633
vt 0.000100 0.000100
vt 0.999900 0.333367
vt 0.999900 0.000100
vt 0.000100 0.333367
vt 0.000100 0.999900
vt 0.999900 0.666633
vt 0.000100 0.666633
vt 0.000100 0.000100
vt 0.999900 0.333367
vt 0.999900 0.000100
vt 0.000100 0.333367
vt 0.000100 0.999900
vt 0.999900 0.666633
vt 0.000100 0.666633
vt 0.000100 0.000100
vt 0.999900 0.333367
vt 0.999900 0.000100
vt 0.000100 0.333367
vt 0.999900 0.999900
vt 0.999900 0.999900
vt 0.999900 0.999900
vt 0.999900 0.999900
vt 0.999900 0.000100
vt 0.999900 0.000100
vt 0.999900 0.999900
vt 0.999900 0.000100
vt 0.999900 0.999900
vt 0.999900 0.000100
vt 0.999900 0.999900
vt 0.999900 0.000100
vt 0.999900 0.999900
vt 0.999900 0.999900
vt 0.000100 0.999900
vt 0.999900 0.999900
vt 0.999900 0.999900
vt 0.000100 0.999900
vn -0.1547 -0.1630 0.9744
vn 0.8419 -0.2671 -0.4690
vn -0.8702 -0.1726 -0.4615
vn -0.8669 -0.0097 -0.4984
vn -0.8685 -0.1261 -0.4793
vn 0.8660 -0.0054 -0.5000
vn 0.8546 -0.1764 -0.4884
vn -0.0200 0.0121 0.9997
vn -0.0205 -0.0266 0.9994
vn 0.3709 -0.9278 0.0395
vn 0.9232 -0.0914 0.3733
vn 0.4611 -0.8846 0.0696
vn -0.7598 -0.5383 0.3644
vn -0.7716 -0.0076 0.6360
vn -0.7358 -0.4171 0.5335
vn -0.1191 -0.9557 -0.2691
vn -0.4350 -0.0166 -0.9003
vn -0.1867 -0.8359 -0.5161
vn 0.0000 0.0000 1.0000
vn 0.1547 0.1630 -0.9744
vn -0.8419 0.2671 0.4690
vn 0.8675 0.1391 0.4776
vn 0.8660 0.0044 0.5000
vn 0.8643 0.0834 0.4961
vn -0.8660 0.0054 0.5000
vn -0.8546 0.1764 0.4884
vn 0.0000 0.0499 -0.9988
vn 0.0205 0.0266 -0.9994
vn -0.3709 0.9278 -0.0395
vn -0.9217 0.0630 -0.3829
vn -0.7156 0.6399 -0.2800
vn 0.7598 0.5383 -0.3644
vn 0.7468 0.1287 -0.6525
vn 0.7358 0.4171 -0.5335
vn 0.1191 0.9557 0.2691
vn 0.4045 -0.0873 0.9103
vn 0.1867 0.8359 0.5161
vn -0.2618 -0.4175 0.8702
vn 0.8418 -0.2846 -0.4588
vn -0.8675 -0.1391 -0.4776
vn -0.8660 -0.0044 -0.5000
vn -0.8643 -0.0834 -0.4961
vn 0.8665 -0.0082 -0.4991
vn 0.8548 -0.1807 -0.4865
vn 0.0000 -0.0499 0.9988
vn -0.1671 -0.4251 0.8896
vn 0.6968 -0.7165 0.0327
vn 0.9217 -0.0630 0.3829
vn 0.7156 -0.6399 0.2800
vn -0.7358 -0.6537 0.1767
vn -0.7468 -0.1287 0.6525
vn -0.6263 -0.7674 0.1374
vn -0.6940 -0.5076 -0.5105
vn -0.4045 0.0873 -0.9103
vn -0.5403 -0.4100 -0.7349
vn 0.2618 0.4175 -0.8702
vn -0.8418 0.2846 0.4588
vn 0.8702 0.1726 0.4615
vn 0.8669 0.0097 0.4984
vn 0.8685 0.1261 0.4793
vn -0.8665 0.0082 0.4991
vn -0.8548 0.1807 0.4865
vn 0.0200 -0.0121 -0.9997
vn 0.1671 0.4251 -0.8896
vn -0.6968 0.7165 -0.0327
vn -0.9232 0.0914 -0.3733
vn -0.4611 0.8846 -0.0696
vn 0.7358 0.6537 -0.1767
vn 0.7716 0.0076 -0.6360
vn 0.6263 0.7674 -0.1374
vn 0.6940 0.5076 0.5105
vn 0.4350 0.0166 0.9003
vn 0.5403 0.4100 0.7349
s off
f 22/1/1 2/2/1 23/3/1
f 18/4/2 6/5/2 19/6/2
f 15/7/3 9/8/3 10/9/3
f 12/10/4 13/11/4 16/12/4
f 16/12/5 14/13/5 15/7/5
f 7/14/6 20/15/6 8/16/6
f 17/17/7 19/6/7 20/15/7
f 4/18/8 21/19/8 24/20/8
f 21/19/9 23/3/9 24/20/9
f 30/21/10 26/22/10 31/23/10
f 28/24/11 29/25/11 32/26/11
f 32/26/12 30/21/12 31/23/12
f 38/27/13 34/28/13 39/29/13
f 36/30/14 37/31/14 40/32/14
f 37/31/15 39/29/15 40/32/15
f 46/33/16 42/34/16 47/35/16
f 44/36/17 45/37/17 48/38/17
f 45/37/18 47/35/18 48/38/18
f 42/34/19 49/39/19 50/40/19
f 52/41/20 72/42/20 73/43/20
f 56/44/21 68/45/21 69/46/21
f 65/47/22 59/48/22 64/49/22
f 62/50/23 63/51/23 61/52/23
f 66/53/24 64/49/24 63/51/24
f 70/54/25 57/55/25 58/56/25
f 69/46/26 67/57/26 70/54/26
f 54/58/27 71/59/27 53/60/27
f 73/43/28 71/59/28 74/61/28
f 76/62/29 80/63/29 81/64/29
f 78/65/30 79/66/30 77/67/30
f 82/68/31 80/63/31 79/66/31
f 84/69/32 88/70/32 89/71/32
f 86/72/33 87/73/33 85/74/33
f 89/71/34 87/73/34 90/75/34
f 92/76/35 96/77/35 97/78/35
f 94/79/36 95/80/36 93/81/36
f 97/78/37 95/80/37 98/82/37
f 92/76/19 99/83/19 91/84/19
f 22/1/38 1/85/38 2/2/38
f 18/4/39 5/86/39 6/5/39
f 15/7/40 14/13/40 9/8/40
f 12/10/41 11/87/41 13/11/41
f 16/12/42 13/11/42 14/13/42
f 7/14/43 17/17/43 20/15/43
f 17/17/44 18/4/44 19/6/44
f 4/18/45 3/88/45 21/19/45
f 21/19/46 22/1/46 23/3/46
f 30/21/47 25/89/47 26/22/47
f 28/24/48 27/90/48 29/25/48
f 32/26/49 29/25/49 30/21/49
f 38/27/50 33/91/50 34/28/50
f 36/30/51 35/92/51 37/31/51
f 37/31/52 38/27/52 39/29/52
f 46/33/53 41/93/53 42/34/53
f 44/36/54 43/94/54 45/37/54
f 45/37/55 46/33/55 47/35/55
f 42/34/19 41/93/19 49/39/19
f 52/41/56 51/95/56 72/42/56
f 56/44/57 55/96/57 68/45/57
f 65/47/58 60/97/58 59/48/58
f 62/50/59 66/53/59 63/51/59
f 66/53/60 65/47/60 64/49/60
f 70/54/61 67/57/61 57/55/61
f 69/46/62 68/45/62 67/57/62
f 54/58/63 74/61/63 71/59/63
f 73/43/64 72/42/64 71/59/64
f 76/62/65 75/98/65 80/63/65
f 78/65/66 82/68/66 79/66/66
f 82/68/67 81/64/67 80/63/67
f 84/69/68 83/99/68 88/70/68
f 86/72/69 90/75/69 87/73/69
f 89/71/70 88/70/70 87/73/70
f 92/76/71 91/84/71 96/77/71
f 94/79/72 98/82/72 95/80/72
f 97/78/73 96/77/73 95/80/73
f 92/76/19 100/100/19 99/83/19
