# Blender v2.79 (sub 0) OBJ File: 'grass.blend'
# www.blender.org
v 1.059209 1.589083 -3.852396
v -0.869615 1.884797 -4.290791
v 0.974162 -0.148639 -4.429770
v -1.025837 -0.148639 -4.429770
v -0.226992 1.656962 -5.874051
v 0.794900 1.948255 -4.179682
v -0.336618 -0.116451 -5.503795
v 0.663382 -0.116451 -3.771744
v -0.729379 2.051673 -4.079774
v 0.237280 1.818150 -5.815008
v -0.702384 -0.026244 -3.801836
v 0.297615 -0.026244 -5.533886
v -0.702058 0.648694 -3.808391
v -0.709530 1.364523 -3.915742
v 0.271320 1.215477 -5.653740
v 0.295398 0.627874 -5.542742
v -0.335744 0.535073 -5.512952
v -0.299477 1.090048 -5.655389
v 0.712498 1.284771 -3.949688
v 0.660182 0.574701 -3.784729
v 0.974637 0.497258 -4.397484
v 1.002589 1.033638 -4.135911
v -0.969961 1.218313 -4.418244
v -1.025394 0.523356 -4.437901
v 1.252281 1.190970 -5.139291
v 0.876745 0.914414 -3.194429
v 0.612316 -0.169067 -5.472598
v -0.155344 -0.171239 -3.624938
v 0.630072 0.472891 -5.409696
v 0.887601 0.831329 -5.248753
v 0.326026 0.687158 -3.360867
v -0.106878 0.443164 -3.594424
v 0.165035 0.679898 -3.045757
v -1.006031 1.646140 -4.347672
v 0.431242 -0.169067 -3.792742
v -0.884996 -0.171239 -5.299614
v 0.393140 0.302493 -3.743353
v 0.257231 0.464169 -3.459789
v -0.943501 1.187185 -4.895267
v -0.863406 0.573534 -5.264510
v -1.323873 1.181176 -4.591899
v -0.106614 1.111263 -6.177268
v -0.992128 -0.199659 -4.437781
v 0.836526 -0.198147 -5.250252
v -0.962263 0.413204 -4.392268
v -1.088279 0.759362 -4.492748
v 0.448354 0.909480 -5.706218
v 0.793495 0.546489 -5.243185
v -1.323873 1.181176 -4.591899
v -0.106614 1.111263 -6.177268
v 1.059417 1.589370 -3.853332
v -0.869407 1.885084 -4.291725
v 0.974173 -0.148621 -4.430770
v -1.025827 -0.148621 -4.430770
v -0.226150 1.656687 -5.874515
v 0.795742 1.947980 -4.180146
v -0.335752 -0.116458 -5.504294
v 0.664248 -0.116458 -3.772244
v -0.728510 2.051828 -4.079304
v 0.238148 1.818305 -5.814538
v -0.701518 -0.026237 -3.801336
v 0.298482 -0.026237 -5.533387
v -0.701190 0.648747 -3.807897
v -0.708662 1.364651 -3.915262
v 0.272188 1.215607 -5.653262
v 0.296265 0.627931 -5.542248
v -0.334881 0.534976 -5.513447
v -0.298628 1.089818 -5.655864
v 0.713348 1.284547 -3.950166
v 0.661046 0.574612 -3.785225
v 0.974688 0.497377 -4.398476
v 1.002741 1.033892 -4.136866
v -0.969812 1.218565 -4.419200
v -1.025344 0.523472 -4.438894
v 1.252812 1.190124 -5.139254
v 0.877277 0.913568 -3.194392
v 0.613239 -0.169144 -5.472219
v -0.154422 -0.171316 -3.624560
v 0.630909 0.472438 -5.409390
v 0.888165 0.830510 -5.248647
v 0.326588 0.686336 -3.360766
v -0.106055 0.442680 -3.594127
v 0.165790 0.680486 -3.046048
v -1.005276 1.646728 -4.347963
v 0.432006 -0.169012 -3.793385
v -0.884233 -0.171184 -5.300257
v 0.393911 0.302823 -3.743897
v 0.257974 0.464743 -3.460134
v -0.942762 1.187754 -4.895627
v -0.862632 0.573838 -5.265066
v -1.324250 1.180338 -4.592293
v -0.106990 1.110425 -6.177662
v -0.992550 -0.199628 -4.438688
v 0.836105 -0.198116 -5.251158
v -0.962672 0.412828 -4.393100
v -1.088636 0.758576 -4.493253
v 0.448000 0.908701 -5.706735
v 0.793084 0.546133 -5.244024
v -1.323128 1.180512 -4.591954
v -0.106556 1.110665 -6.176468
vt 0.999900 0.666633
vt 0.000100 0.999900
vt 0.000100 0.666633
vt 0.000100 0.999900
vt 0.999900 0.666633
vt 0.000100 0.666633
vt 0.000100 0.666633
vt 0.999900 0.999900
vt 0.000100 0.999900
vt 0.000100 0.000100
vt 0.999900 0.333367
vt 0.000100 0.333367
vt 0.999900 0.666633
vt 0.000100 0.333367
vt 0.999900 0.000100
vt 0.000100 0.000100
vt 0.999900 0.333367
vt 0.000100 0.000100
vt 0.999900 0.333367
vt 0.000100 0.333367
vt 0.000100 0.999900
vt 0.999900 0.666633
vt 0.000100 0.666633
vt 0.000100 0.000100
vt 0.999900 0.333367
vt 0.999900 0.000100
vt 0.000100 0.333367
vt 0.999900 0.666633
vt 0.000100 0.999900
vt 0.000100 0.666633
vt 0.000100 0.000100
vt 0.999900 0.333367
vt 0.000100 0.333367
vt 0.000100 0.999900
vt 0.999900 0.666633
vt 0.000100 0.666633
vt 0.000100 0.000100
vt 0.999900 0.333367
vt 0.999900 0.000100
vt 0.000100 0.333367
vt 0.999900 0.999900
vt 0.999900 0.999900
vt 0.000100 0.999900
vt 0.999900 0.666633
vt 0.000100 0.666633
vt 0.999900 0.666633
vt 0.000100 0.999900
vt 0.000100 0.666633
vt 0.000100 0.666633
vt 0.999900 0.999900
vt 0.999900 0.666633
vt 0.000100 0.000100
vt 0.999900 0.333367
vt 0.999900 0.000100
vt 0.000100 0.333367
vt 0.999900 0.000100
vt 0.000100 0.333367
vt 0.000100 0.000100
vt 0.999900 0.333367
vt 0.000100 0.000100
vt 0.999900 0.333367
vt 0.999900 0.000100
vt 0.000100 0.333367
vt 0.999900 0.666633
vt 0.000100 0.999900
vt 0.000100 0.666633
vt 0.000100 0.000100
vt 0.999900 0.333367
vt 0.000100 0.333367
vt 0.000100 0.999900
vt 0.999900 0.666633
vt 0.000100 0.666633
vt 0.000100 0.000100
vt 0.999900 0.333367
vt 0.999900 0.000100
vt 0.000100 0.333367
vt 0.999900 0.666633
vt 0.000100 0.999900
vt 0.000100 0.666633
vt 0.000100 0.000100
vt 0.999900 0.333367
vt 0.000100 0.333367
vt 0.999900 0.999900
vt 0.000100 0.999900
vt 0.999900 0.999900
vt 0.999900 0.999900
vt 0.999900 0.000100
vt 0.999900 0.000100
vt 0.999900 0.999900
vt 0.999900 0.999900
vt 0.999900 0.000100
vt 0.000100 0.999900
vt 0.999900 0.999900
vt 0.999900 0.999900
vt 0.000100 0.999900
vt 0.999900 0.999900
vt 0.999900 0.000100
vt 0.999900 0.999900
vt 0.999900 0.000100
vt 0.999900 0.999900
vn -0.2058 -0.3962 0.8948
vn -0.1762 -0.2128 0.9611
vn -0.1003 -0.1317 0.9862
vn -0.8419 0.2703 0.4671
vn -0.8489 0.2349 0.4733
vn -0.8495 0.2196 0.4796
vn -0.8693 -0.1472 -0.4718
vn -0.8681 -0.1454 -0.4747
vn -0.8701 -0.1726 -0.4615
vn -0.8667 -0.0086 -0.4987
vn -0.8659 -0.0430 -0.4983
vn -0.8686 -0.0656 -0.4911
vn -0.8665 -0.1139 -0.4859
vn -0.8638 0.0875 0.4962
vn -0.8664 0.0076 0.4993
vn -0.8660 0.0054 0.5000
vn -0.8635 0.0984 0.4946
vn -0.0161 -0.0002 0.9998
vn -0.0734 -0.1973 0.9776
vn -0.0203 -0.0069 0.9998
vn -0.4297 0.9021 -0.0387
vn -0.6676 0.7303 -0.1446
vn -0.4146 0.9084 -0.0540
vn -0.9229 0.0857 -0.3752
vn -0.8663 0.3562 -0.3502
vn -0.9216 0.0630 -0.3828
vn -0.7950 0.5470 -0.2621
vn -0.6973 -0.6933 0.1820
vn -0.7587 -0.5561 0.3391
vn -0.7481 -0.4986 0.4378
vn -0.7686 -0.0261 0.6392
vn -0.7613 -0.4631 0.4538
vn -0.7720 -0.2080 0.6006
vn 0.1321 0.5625 0.8162
vn 0.5836 0.5361 0.6099
vn 0.1823 0.8874 0.4234
vn 0.4294 -0.0039 0.9031
vn 0.4709 0.2380 0.8495
vn 0.4045 -0.0873 0.9103
vn 0.3571 0.4655 0.8098
vn 0.0000 0.0000 1.0000
vn 0.3774 0.2760 0.8839
vn 0.1762 0.2128 -0.9611
vn 0.2058 0.3961 -0.8948
vn 0.1003 0.1317 -0.9862
vn 0.8489 -0.2350 -0.4733
vn 0.8419 -0.2703 -0.4671
vn 0.8495 -0.2196 -0.4796
vn 0.8693 0.1472 0.4718
vn 0.8681 0.1454 0.4747
vn 0.8665 0.1139 0.4859
vn 0.8667 0.0086 0.4987
vn 0.8659 0.0430 0.4983
vn 0.8660 0.0044 0.5000
vn 0.8686 0.0656 0.4911
vn 0.8664 -0.0076 -0.4993
vn 0.8638 -0.0875 -0.4962
vn 0.8660 -0.0054 -0.5000
vn 0.8635 -0.0984 -0.4946
vn 0.0161 0.0002 -0.9998
vn 0.0734 0.1973 -0.9776
vn 0.0000 0.0499 -0.9987
vn 0.0203 0.0069 -0.9998
vn 0.6676 -0.7303 0.1446
vn 0.4297 -0.9021 0.0387
vn 0.4145 -0.9084 0.0539
vn 0.9229 -0.0855 0.3753
vn 0.8663 -0.3561 0.3502
vn 0.7950 -0.5470 0.2621
vn 0.7587 0.5561 -0.3391
vn 0.6973 0.6932 -0.1821
vn 0.7481 0.4986 -0.4378
vn 0.7686 0.0262 -0.6392
vn 0.7613 0.4629 -0.4539
vn 0.7468 0.1287 -0.6525
vn 0.7720 0.2081 -0.6006
vn -0.5837 -0.5360 -0.6099
vn -0.5198 -0.4800 -0.7066
vn -0.1822 -0.8874 -0.4233
vn -0.4294 0.0040 -0.9031
vn -0.4709 -0.2378 -0.8495
vn -0.3571 -0.4655 -0.8098
vn -0.7433 0.3242 -0.5850
vn -0.1365 0.9795 -0.1480
vn -0.2618 -0.4175 0.8701
vn -0.8418 0.2846 0.4587
vn -0.8660 -0.0044 -0.5000
vn 0.0000 -0.0499 0.9987
vn -0.6968 0.7165 -0.0327
vn -0.7358 -0.6537 0.1767
vn -0.7468 -0.1287 0.6525
vn 0.2618 0.4174 -0.8701
vn 0.8418 -0.2846 -0.4587
vn 0.8701 0.1726 0.4615
vn 0.6968 -0.7165 0.0327
vn 0.9217 -0.0629 0.3829
vn 0.7358 0.6536 -0.1767
vn -0.4045 0.0875 -0.9103
vn -0.1129 0.9850 -0.1302
s 1
f 22/1/1 2/2/2 23/3/3
f 6/4/4 18/5/5 19/6/6
f 15/7/7 9/8/8 10/9/9
f 12/10/10 13/11/11 16/12/12
f 16/12/12 14/13/13 15/7/7
f 20/14/14 7/15/15 8/16/16
f 19/6/6 17/17/17 20/14/14
f 4/18/18 21/19/19 24/20/20
f 21/19/19 23/3/3 24/20/20
f 26/21/21 30/22/22 31/23/23
f 28/24/24 29/25/25 27/26/26
f 32/27/27 30/22/22 29/25/25
f 38/28/28 34/29/29 39/30/30
f 36/31/31 37/32/32 40/33/33
f 37/32/32 39/30/30 40/33/33
f 42/34/34 46/35/35 47/36/36
f 44/37/37 45/38/38 43/39/39
f 47/36/36 45/38/38 48/40/40
f 42/34/34 49/41/41 41/42/42
f 52/43/43 72/44/44 73/45/45
f 68/46/46 56/47/47 69/48/48
f 65/49/49 59/50/50 64/51/51
f 62/52/52 63/53/53 61/54/54
f 66/55/55 64/51/51 63/53/53
f 57/56/56 70/57/57 58/58/58
f 67/59/59 69/48/48 70/57/57
f 54/60/60 71/61/61 53/62/62
f 73/45/45 71/61/61 74/63/63
f 80/64/64 76/65/65 81/66/66
f 78/67/67 79/68/68 82/69/69
f 82/69/69 80/64/64 81/66/66
f 84/70/70 88/71/71 89/72/72
f 86/73/73 87/74/74 85/75/75
f 89/72/72 87/74/74 90/76/76
f 96/77/77 92/78/78 97/79/79
f 94/80/80 95/81/81 98/82/82
f 95/81/81 97/79/79 98/82/82
f 91/83/83 100/84/84 92/78/78
f 22/1/1 1/85/85 2/2/2
f 6/4/4 5/86/86 18/5/5
f 15/7/7 14/13/13 9/8/8
f 12/10/10 11/87/87 13/11/11
f 16/12/12 13/11/11 14/13/13
f 20/14/14 17/17/17 7/15/15
f 19/6/6 18/5/5 17/17/17
f 4/18/18 3/88/88 21/19/19
f 21/19/19 22/1/1 23/3/3
f 26/21/21 25/89/89 30/22/22
f 28/24/24 32/27/27 29/25/25
f 32/27/27 31/23/23 30/22/22
f 38/28/28 33/90/90 34/29/29
f 36/31/31 35/91/91 37/32/32
f 37/32/32 38/28/28 39/30/30
f 42/34/34 41/42/42 46/35/35
f 44/37/37 48/40/40 45/38/38
f 47/36/36 46/35/35 45/38/38
f 42/34/34 50/92/41 49/41/41
f 52/43/43 51/93/92 72/44/44
f 68/46/46 55/94/93 56/47/47
f 65/49/49 60/95/94 59/50/50
f 62/52/52 66/55/55 63/53/53
f 66/55/55 65/49/49 64/51/51
f 57/56/56 67/59/59 70/57/57
f 67/59/59 68/46/46 69/48/48
f 54/60/60 74/63/63 71/61/61
f 73/45/45 72/44/44 71/61/61
f 80/64/64 75/96/95 76/65/65
f 78/67/67 77/97/96 79/68/68
f 82/69/69 79/68/68 80/64/64
f 84/70/70 83/98/97 88/71/71
f 86/73/73 90/76/76 87/74/74
f 89/72/72 88/71/71 87/74/74
f 96/77/77 91/83/83 92/78/78
f 94/80/80 93/99/98 95/81/81
f 95/81/81 96/77/77 97/79/79
f 91/83/83 99/100/99 100/84/84
